<svg xmlns="http://www.w3.org/2000/svg" version="1.1" xmlns:xlink="http://www.w3.org/1999/xlink" xmlns:svgjs="http://svgjs.dev/svgjs" width="1300" height="300" preserveAspectRatio="none" viewBox="0 0 1300 300"><g mask="url(&quot;#SvgjsMask1000&quot;)" fill="none"><rect width="1300" height="300" x="0" y="0" fill="rgba(0, 0, 0, 1)"></rect><path d="M534.51 320.34C628.44 300.58 598.3 57.85 813.42 56.45 1028.54 55.05 1230.89 119.35 1371.23 119.45" stroke="rgba(87, 87, 87, 1)" stroke-width="2"></path><path d="M708.57 316.68C806.86 308.67 861.47 116.64 1044.75 110.35 1228.03 104.06 1294.12 24.05 1380.93 23.35" stroke="rgba(87, 87, 87, 1)" stroke-width="2"></path><path d="M242.58 320.23C369.52 307.07 444.64 35.81 664.72 33.22 884.8 30.63 875.8 70.72 1086.87 70.72 1297.94 70.72 1403.06 33.26 1509.01 33.22" stroke="rgba(87, 87, 87, 1)" stroke-width="2"></path><path d="M800.54 336.24C902.02 327.71 969.38 122.02 1146.47 121.13 1323.56 120.24 1404.5 183.87 1492.4 184.13" stroke="rgba(87, 87, 87, 1)" stroke-width="2"></path><path d="M564.97 334.89C690.25 329.81 790.75 123.74 1019.81 123.54 1248.87 123.34 1358.12 224.92 1474.65 225.54" stroke="rgba(87, 87, 87, 1)" stroke-width="2"></path></g><defs><mask id="SvgjsMask1000"><rect width="1300" height="300" fill="#ffffff"></rect></mask></defs></svg>